{
	"asset": {
		"generator": "Tilt Brush 15.2.4484bbdd5",
		"version": "1.1",
		"copyright": "Unknown."
	},
	"buffers": {
		"sketch": {
			"byteLength": 47520,
			"type": "arraybuffer",
			"uri": "sketch.bin"
		}
	},
	"accessors": {
		"accessor_position_Waveform_10201aa3-ebc2-42d8-84b7-2e63f6eeb8ab_0_0": {
			"bufferView": "vec3BufferView",
			"byteOffset": 0,
			"byteStride": 12,
			"componentType": 5126,
			"count": 720,
			"max": [ 7.603386, 7.191026, 6.630925 ],
			"min": [ 2.794581, 1.695698, 3.739424 ],
			"type": "VEC3"
		 },
		"accessor_normal_Waveform_10201aa3-ebc2-42d8-84b7-2e63f6eeb8ab_0_0": {
			"bufferView": "vec3BufferView",
			"byteOffset": 8640,
			"byteStride": 12,
			"componentType": 5126,
			"count": 720,
			"max": [ 0.9847704, 0.3323044, 0.9553548 ],
			"min": [ -0.4952513, -0.3576905, -0.920472 ],
			"type": "VEC3"
		 },
		"accessor_color_Waveform_10201aa3-ebc2-42d8-84b7-2e63f6eeb8ab_0_0": {
			"bufferView": "vec4BufferView",
			"byteOffset": 0,
			"byteStride": 16,
			"componentType": 5126,
			"count": 720,
			"max": [ 0.9490196, 0.5019608, 0, 1 ],
			"min": [ 0.9490196, 0.5019608, 0, 1 ],
			"type": "VEC4"
		 },
		"accessor_tangent_Waveform_10201aa3-ebc2-42d8-84b7-2e63f6eeb8ab_0_0": {
			"bufferView": "vec4BufferView",
			"byteOffset": 11520,
			"byteStride": 16,
			"componentType": 5126,
			"count": 720,
			"max": [ 0.8600454, 0.9785274, 0.2948982, 1 ],
			"min": [ -0.4551235, -0.9753313, -0.4775899, 1 ],
			"type": "VEC4"
		 },
		"accessor_uv0_Waveform_10201aa3-ebc2-42d8-84b7-2e63f6eeb8ab_0_0": {
			"bufferView": "vec2BufferView",
			"byteOffset": 0,
			"byteStride": 8,
			"componentType": 5126,
			"count": 720,
			"max": [ 1, 1 ],
			"min": [ 0, 0 ],
			"type": "VEC2"
		 },
		"accessor_indices_0_Waveform_10201aa3-ebc2-42d8-84b7-2e63f6eeb8ab_0_0": {
			"bufferView": "ushortBufferView",
			"byteOffset": 0,
			"byteStride": 0,
			"componentType": 5123,
			"count": 720,
			"max": [ 719 ],
			"min": [ 0 ],
			"type": "SCALAR"
		 }
	},
	"bufferViews": {
		"ushortBufferView": {
			"buffer": "sketch",
			"byteLength": 1440,
			"byteOffset": 0,
			"target": 34963
		},
		"vec2BufferView": {
			"buffer": "sketch",
			"byteLength": 5760,
			"byteOffset": 1440,
			"target": 34962
		},
		"vec3BufferView": {
			"buffer": "sketch",
			"byteLength": 17280,
			"byteOffset": 7200,
			"target": 34962
		},
		"vec4BufferView": {
			"buffer": "sketch",
			"byteLength": 23040,
			"byteOffset": 24480,
			"target": 34962
		}
	},
	"meshes": {
		"mesh_Waveform_10201aa3-ebc2-42d8-84b7-2e63f6eeb8ab_0_0": {
			"name": "mesh_Waveform_10201aa3-ebc2-42d8-84b7-2e63f6eeb8ab_0_0",
			"primitives": [
				{
					"attributes": {
						"POSITION": "accessor_position_Waveform_10201aa3-ebc2-42d8-84b7-2e63f6eeb8ab_0_0",
						"NORMAL": "accessor_normal_Waveform_10201aa3-ebc2-42d8-84b7-2e63f6eeb8ab_0_0",
						"COLOR": "accessor_color_Waveform_10201aa3-ebc2-42d8-84b7-2e63f6eeb8ab_0_0",
						"TANGENT": "accessor_tangent_Waveform_10201aa3-ebc2-42d8-84b7-2e63f6eeb8ab_0_0",
						"TEXCOORD_0": "accessor_uv0_Waveform_10201aa3-ebc2-42d8-84b7-2e63f6eeb8ab_0_0"
					},
					"indices": "accessor_indices_0_Waveform_10201aa3-ebc2-42d8-84b7-2e63f6eeb8ab_0_0",
					"material": "material_10201aa3-ebc2-42d8-84b7-2e63f6eeb8ab",
					"mode": 4
				}
			]
		}
	},
	"shaders": {
		"vertex_10201aa3-ebc2-42d8-84b7-2e63f6eeb8ab": {
			"type": 35633,
			"uri": "https://www.tiltbrush.com/shaders/brushes/Waveform-10201aa3-ebc2-42d8-84b7-2e63f6eeb8ab/Waveform-10201aa3-ebc2-42d8-84b7-2e63f6eeb8ab-v10.0-vertex.glsl"
		},
		"fragment_10201aa3-ebc2-42d8-84b7-2e63f6eeb8ab": {
			"type": 35632,
			"uri": "https://www.tiltbrush.com/shaders/brushes/Waveform-10201aa3-ebc2-42d8-84b7-2e63f6eeb8ab/Waveform-10201aa3-ebc2-42d8-84b7-2e63f6eeb8ab-v10.0-fragment.glsl"
		}
	},
	"programs": {
		"program_10201aa3-ebc2-42d8-84b7-2e63f6eeb8ab": {
			"attributes": [
				"a_position",
				"a_normal",
				"a_color",
				"a_tangent",
				"a_texcoord0"				
			],
			"vertexShader": "vertex_10201aa3-ebc2-42d8-84b7-2e63f6eeb8ab",
			"fragmentShader": "fragment_10201aa3-ebc2-42d8-84b7-2e63f6eeb8ab"
		}
	},
	"techniques": {
		"technique_10201aa3-ebc2-42d8-84b7-2e63f6eeb8ab": {
			"program": "program_10201aa3-ebc2-42d8-84b7-2e63f6eeb8ab",
			"parameters": {
				"position": {
					"type": 35665,
					"semantic": "POSITION"
				},
				"normal": {
					"type": 35665,
					"semantic": "NORMAL"
				},
				"color": {
					"type": 35666,
					"semantic": "COLOR"
				},
				"tangent": {
					"type": 35666,
					"semantic": "TANGENT"
				},
				"texcoord0": {
					"type": 35664,
					"semantic": "TEXCOORD_0"
				},
				"modelViewMatrix": {
					"type": 35676,
					"semantic": "MODELVIEW"
				},
				"projectionMatrix": {
					"type": 35676,
					"semantic": "PROJECTION"
				},
				"normalMatrix": {
					"type": 35675,
					"semantic": "MODELVIEWINVERSETRANSPOSE"
				},
				"SceneLight_0_matrix": {
					"type": 35676,
					"semantic": "MODELVIEW",
					"node": "node_SceneLight_0_-914"
				},
				"SceneLight_0_color": {
					"type": 35666,
					"node": "node_SceneLight_0_-914"
				},
				"SceneLight_1_matrix": {
					"type": 35676,
					"semantic": "MODELVIEW",
					"node": "node_SceneLight_1_-920"
				},
				"SceneLight_1_color": {
					"type": 35666,
					"node": "node_SceneLight_1_-920"
				},
				"ambient_light_color": {
					"type": 35666
				},
				"EmissionGain": {
					"type": 5126
				},
				"MainTex_TexelSize": {
					"type": 35666
				},
				"MainTex": {
					"type": 35678
				}				
			},
			"attributes": {
				"a_position": "position",
				"a_normal": "normal",
				"a_color": "color",
				"a_tangent": "tangent",
				"a_texcoord0": "texcoord0"				
			},
			"uniforms": {
				"u_modelViewMatrix": "modelViewMatrix",
				"u_projectionMatrix": "projectionMatrix",
				"u_normalMatrix": "normalMatrix",
				"u_SceneLight_0_matrix": "SceneLight_0_matrix",
				"u_SceneLight_0_color": "SceneLight_0_color",
				"u_SceneLight_1_matrix": "SceneLight_1_matrix",
				"u_SceneLight_1_color": "SceneLight_1_color",
				"u_ambient_light_color": "ambient_light_color",
				"u_EmissionGain": "EmissionGain",
				"u_MainTex_TexelSize": "MainTex_TexelSize",
				"u_MainTex": "MainTex"				
			},
			"states": {
				"enable": [
					2929,
					3042
				],
				"functions": {
					"blendFuncSeparate": [1, 1, 1, 1],
					"depthMask": [false]
				}
			}
		}
	},
	"samplers": {
		"sampler_LINEAR_LINEAR_REPEAT": {
			"magFilter": 9729,
			"minFilter": 9987,
			"wrapS": 10497,
			"wrapT": 10497
		}
	},
	"textures": {
		"texture_10201aa3-ebc2-42d8-84b7-2e63f6eeb8ab_MainTex": {
			"format": 6408,
			"internalFormat": 6408,
			"sampler": "sampler_LINEAR_LINEAR_REPEAT",
			"source": "image_10201aa3-ebc2-42d8-84b7-2e63f6eeb8ab_MainTex",
			"target": 3553,
			"type": 5121
		}
	},
	"images": {
		"image_10201aa3-ebc2-42d8-84b7-2e63f6eeb8ab_MainTex": {
			"uri": "https://www.tiltbrush.com/shaders/brushes/Waveform-10201aa3-ebc2-42d8-84b7-2e63f6eeb8ab/Waveform-10201aa3-ebc2-42d8-84b7-2e63f6eeb8ab-v10.0-MainTex.png"
		}
	},
	"materials": {
		"material_10201aa3-ebc2-42d8-84b7-2e63f6eeb8ab": {
			"technique": "technique_10201aa3-ebc2-42d8-84b7-2e63f6eeb8ab",
			"values": {
				"SceneLight_0_color": [0.7780392, 0.8156863, 0.9913726, 1],
				"SceneLight_1_color": [0.4282353, 0.4211765, 0.3458824, 1],
				"ambient_light_color": [0.3921569, 0.3921569, 0.3921569, 1],
				"EmissionGain": 0.5178571,
				"MainTex_TexelSize": [0.015625, 0.015625, 64, 64],
				"MainTex": "texture_10201aa3-ebc2-42d8-84b7-2e63f6eeb8ab_MainTex"				
			},
			"name": "material_10201aa3-ebc2-42d8-84b7-2e63f6eeb8ab"
		}
	},
	"nodes": {
		"node_Waveform_10201aa3-ebc2-42d8-84b7-2e63f6eeb8ab_0_0": {
			"name": "node_Waveform_10201aa3-ebc2-42d8-84b7-2e63f6eeb8ab_0_0",
			"meshes": [
				"mesh_Waveform_10201aa3-ebc2-42d8-84b7-2e63f6eeb8ab_0_0"
			],
			"matrix": [1, 0, 0, 0, 0, 1, 0, 0, 0, 0, 1, 0, 0, 0, 0, 1]
		},
		"node_SceneLight_0_-914": {
			"name": "node_SceneLight_0_-914",
			"light": "SceneLight_0",
			"matrix": [0.898794, 0.2191856, -0.3796406, 0, -0.4383712, 0.449397, -0.7783785, 0, -1.490116E-08, 0.8660254, 0.4999999, 0, 9.169442, -8.71496, 17.69958, 1]
		},
		"node_SceneLight_1_-920": {
			"name": "node_SceneLight_1_-920",
			"light": "SceneLight_1",
			"matrix": [0.7660444, -0.4924039, -0.4131759, 0, -0.6427876, -0.5868242, -0.4924039, 0, 8.940697E-08, 0.6427876, -0.7660446, 0, 9.169444, -8.856099, 16.89914, 1]
		}
	},
	"scene": "defaultScene",
	"scenes": {
		"defaultScene": {
			"nodes": [
				"node_Waveform_10201aa3-ebc2-42d8-84b7-2e63f6eeb8ab_0_0",
				"node_SceneLight_0_-914",
				"node_SceneLight_1_-920"
			],
			"extras": {
				"TB_EnvironmentGuid": "ab080599-e465-4a6d-8587-43bf495af68b",
				"TB_Environment": "Standard",
				"TB_SkyColorA": "0.2745098, 0.2745098, 0.3176471",
				"TB_SkyColorB": "0.03529412, 0.03529412, 0.08627451",
				"TB_SkyGradientDirection": "0, 1, 0",
				"TB_FogColor": "0.1647059, 0.1647059, 0.2078431",
				"TB_FogDensity": "0.0025",
				"TB_SkyColorHorizon": "0.2745098, 0.2745098, 0.3176471",
				"TB_SkyColorZenith": "0.03529412, 0.03529412, 0.08627451"
			}
		}
	}
}