# 3ds Max Wavefront OBJ Exporter v0.97b - (c)2007 guruware
# File Created: 19.07.2017 13:07:35

mtllib rock_1.mtl

#
# object default
#

v  -0.6924 -0.1143 -0.8358
v  0.7363 -0.0760 1.0668
v  0.8969 -0.1167 -1.0781
v  -1.0521 -0.0646 0.9545
v  -0.5379 -0.0580 1.1544
v  -1.1557 -0.2178 0.4595
v  -0.6309 -0.2263 0.5923
v  -0.6103 1.1479 1.3279
v  -0.6779 1.3297 0.6982
v  -1.1764 1.2812 0.6464
v  -1.0198 1.1750 1.1060
v  0.9363 0.6775 1.4265
v  1.1159 1.0679 0.9810
v  0.8085 1.3464 0.9021
v  0.4440 1.0327 1.5138
v  -1.2816 0.8840 1.2181
v  -0.9445 0.7436 1.3923
v  -0.6819 1.1805 -1.4816
v  -0.9745 0.9261 -1.4314
v  -1.7194 0.9165 -0.6998
v  -1.3560 1.2450 -0.7168
v  -0.7510 0.1491 -1.1230
v  -0.3215 -0.0603 -0.7020
v  -1.0633 0.0745 -1.0156
v  -0.8624 -0.2192 -0.5371
v  -0.3597 -0.2197 -0.5967
v  -0.4762 -0.2740 -0.0374
v  -1.0946 -0.2540 -0.1185
v  -0.0158 -0.3127 -0.0602
v  0.1728 -0.1885 -0.5325
v  0.5481 -0.2841 -0.6576
v  0.4804 -0.3121 -0.1111
v  0.2436 -0.1415 1.1911
v  -0.1546 -0.1145 1.2290
v  -0.1063 -0.2744 0.5960
v  0.3835 -0.2981 0.5332
v  -0.1980 1.3604 0.6308
v  -0.3448 1.1524 1.7300
v  -0.0653 1.1029 1.7960
v  0.3428 1.3709 0.8637
v  0.0630 1.2763 -0.9943
v  0.0461 1.3516 -0.2537
v  0.6115 1.3523 -0.2908
v  0.8016 1.3333 -0.7167
v  -1.1771 1.3032 0.0098
v  -0.6033 1.3436 -0.0113
v  -0.5442 1.2900 -0.8894
v  1.3477 0.1898 0.7468
v  1.2675 0.6307 1.0084
v  1.1553 0.4780 1.3816
v  1.0146 0.1835 1.3129
v  1.1752 0.6925 0.1690
v  1.2689 0.2411 -0.0639
v  1.3238 0.1274 -0.8561
v  1.2671 0.6002 -0.6897
v  1.4235 0.8972 -0.7070
v  1.2320 1.2169 -0.5945
v  0.9754 1.2466 0.0479
v  1.0509 1.0685 0.1975
v  -0.7067 0.1906 1.3469
v  -1.0436 0.4029 1.2896
v  -1.6481 0.4520 0.8536
v  -1.5713 0.1103 0.7707
v  0.2601 0.4526 1.3655
v  -0.1351 0.1567 1.5050
v  0.4943 0.1534 1.3995
v  0.6670 0.4399 1.4487
v  -0.0669 0.6521 1.6022
v  0.5242 0.6914 1.4105
v  -1.3464 -0.0787 -0.8081
v  -1.7599 0.3196 -0.7246
v  -1.1857 0.4816 -1.1336
v  -1.6489 0.4298 -0.0640
v  -1.5484 -0.1538 -0.2556
v  -1.5504 0.0335 0.4876
v  -1.6465 0.4626 0.4590
v  -1.4831 1.0685 0.0453
v  -1.4343 1.0171 0.7468
v  -0.7755 0.4976 -1.4025
v  -0.2632 0.9168 -1.7168
v  -0.1998 0.3368 -1.5364
v  0.1532 0.8392 -1.8322
v  0.8020 0.8503 -1.5286
v  0.5563 0.4493 -1.4965
v  0.4689 -0.1429 -1.0268
v  0.0673 -0.0727 -0.7835
v  -0.1805 0.0609 -1.2339
v  0.5127 0.1147 -1.1984
v  1.0420 -0.1905 -0.6379
v  1.0454 -0.1576 -0.1480
v  1.0089 -0.1265 0.4703
v  1.3038 1.0838 -1.0235
v  0.7705 1.1222 -1.2997
v  0.1053 1.1268 -1.5851
v  -0.1750 1.1472 -1.8012
v  1.0813 0.1751 -1.2876
v  1.2004 0.5382 -1.2217
v  1.3858 0.8076 -1.1818
# 98 vertices

vn 0.0050 0.9997 0.0227
vn -0.2335 -0.8198 0.5228
vn -0.3310 -0.6237 0.7082
vn -0.2648 -0.9442 0.1957
vn -0.0855 -0.9798 0.1806
vn -0.3449 0.7138 0.6096
vn -0.0782 0.9842 0.1590
vn -0.4067 0.8957 0.1798
vn -0.3350 0.7954 0.5052
vn 0.2954 0.1688 0.9403
vn 0.7491 0.5850 0.3108
vn 0.3762 0.8845 0.2759
vn 0.4146 0.4401 0.7965
vn -0.6018 0.3072 0.7372
vn -0.3570 0.0986 0.9289
vn -0.3350 0.7821 -0.5254
vn -0.5667 0.1385 -0.8122
vn -0.9021 0.3658 -0.2287
vn -0.4525 0.8634 -0.2231
vn -0.1928 -0.6945 -0.6932
vn -0.0688 -0.7911 -0.6078
vn 0.1030 -0.8587 -0.5020
vn -0.2328 -0.5892 -0.7737
vn -0.0585 -0.9608 -0.2710
vn -0.0535 -0.8504 -0.5233
vn -0.0566 -0.9982 -0.0178
vn -0.1244 -0.9912 -0.0447
vn -0.0431 -0.9976 -0.0549
vn -0.1739 -0.9255 -0.3365
vn -0.0127 -0.9719 -0.2352
vn 0.1227 -0.9923 0.0155
vn 0.1037 -0.8561 0.5063
vn -0.1067 -0.8533 0.5104
vn -0.0589 -0.9881 0.1422
vn 0.1125 -0.9848 0.1320
vn -0.0512 0.9943 0.0933
vn -0.5075 0.4089 0.7584
vn 0.1004 0.3714 0.9230
vn 0.0136 0.9815 0.1911
vn 0.0301 0.9853 -0.1679
vn -0.0219 0.9978 -0.0627
vn 0.1001 0.9948 -0.0198
vn 0.1487 0.9773 -0.1511
vn -0.3291 0.9441 0.0170
vn -0.0522 0.9982 -0.0291
vn -0.0379 0.9929 -0.1125
vn 0.9194 -0.3729 0.1249
vn 0.9593 0.2226 0.1738
vn 0.6467 -0.0341 0.7619
vn 0.4377 -0.5950 0.6741
vn 0.9635 0.2672 -0.0184
vn 0.9842 -0.1761 0.0163
vn 0.9121 -0.3647 -0.1873
vn 0.9844 -0.1462 0.0977
vn 0.9875 0.0108 0.1570
vn 0.6342 0.7699 0.0707
vn 0.6011 0.7930 0.0993
vn 0.9062 0.4138 0.0867
vn -0.3263 -0.4738 0.8180
vn -0.4612 -0.3441 0.8179
vn -0.9058 -0.0293 0.4226
vn -0.7497 -0.5238 0.4044
vn -0.0548 -0.3691 0.9278
vn -0.0655 -0.1661 0.9839
vn 0.1146 -0.4030 0.9080
vn 0.0908 -0.0609 0.9940
vn -0.0506 -0.4975 0.8660
vn 0.1811 -0.0412 0.9826
vn -0.4408 -0.7257 -0.5282
vn -0.8990 -0.3405 -0.2756
vn -0.4575 -0.3667 -0.8100
vn -0.9989 -0.0066 0.0461
vn -0.7390 -0.6553 -0.1564
vn -0.8110 -0.5736 0.1153
vn -0.9965 0.0836 -0.0033
vn -0.8296 0.5491 0.1016
vn -0.7992 0.5543 0.2325
vn -0.4006 -0.4218 -0.8134
vn -0.2111 -0.1789 -0.9610
vn -0.0988 -0.5754 -0.8119
vn 0.1508 0.0222 -0.9883
vn 0.4269 0.1494 -0.8919
vn 0.2259 -0.4304 -0.8739
vn -0.0771 -0.8428 -0.5327
vn -0.1571 -0.9331 -0.3235
vn -0.1025 -0.8481 -0.5198
vn 0.0720 -0.5648 -0.8221
vn 0.5113 -0.8537 -0.0990
vn 0.2467 -0.8123 -0.5285
vn 0.6188 -0.7832 0.0602
vn 0.5176 -0.8492 0.1045
vn 0.3116 -0.8578 0.4087
vn 0.6390 0.6811 -0.3576
vn 0.2588 0.8116 -0.5237
vn 0.2342 0.8015 -0.5503
vn 0.1698 0.3962 -0.9023
vn 0.3572 -0.2857 -0.8893
vn 0.6905 -0.2316 -0.6853
vn 0.8568 -0.0214 -0.5151
# 99 vertex normals

vt 0.1376 0.5634 0.0000
vt 0.0583 0.5699 0.0000
vt 0.0826 0.5067 0.0000
vt 0.1529 0.4987 0.0000
vt 0.0998 0.3877 0.0000
vt 0.1550 0.3441 0.0000
vt 0.2063 0.3782 0.0000
vt 0.1556 0.4023 0.0000
vt 0.8707 0.1749 0.0000
vt 0.8962 0.2829 0.0000
vt 0.8545 0.3493 0.0000
vt 0.7950 0.2490 0.0000
vt 0.9057 0.6826 0.0000
vt 0.9167 0.6045 0.0000
vt 0.9492 0.5877 0.0000
vt 0.9441 0.6946 0.0000
vt 0.4892 0.0000 0.0000
vt 0.4607 0.0635 0.0000
vt 0.3368 0.0820 0.0000
vt 0.3692 0.0008 0.0000
vt 0.4857 0.2550 0.0000
vt 0.5127 0.3106 0.0000
vt 0.4816 0.3231 0.0000
vt 0.4473 0.2762 0.0000
vt 0.2701 0.5239 0.0000
vt 0.2768 0.5835 0.0000
vt 0.2154 0.5785 0.0000
vt 0.2237 0.5024 0.0000
vt 0.2208 0.6358 0.0000
vt 0.2665 0.6460 0.0000
vt 0.2885 0.6956 0.0000
vt 0.2265 0.6947 0.0000
vt 0.0600 0.6690 0.0000
vt 0.0537 0.6200 0.0000
vt 0.1407 0.6292 0.0000
vt 0.1496 0.6887 0.0000
vt 0.1155 0.2999 0.0000
vt 0.0420 0.4025 0.0000
vt 0.0114 0.3834 0.0000
vt 0.0460 0.2771 0.0000
vt 0.2261 0.1276 0.0000
vt 0.1657 0.1994 0.0000
vt 0.1162 0.1497 0.0000
vt 0.1339 0.0947 0.0000
vt 0.2584 0.3215 0.0000
vt 0.2062 0.2743 0.0000
vt 0.2737 0.1876 0.0000
vt 0.3356 0.2678 0.0000
vt 0.4229 0.6541 0.0000
vt 0.5205 0.6847 0.0000
vt 0.4775 0.7263 0.0000
vt 0.4046 0.7132 0.0000
vt 0.5396 0.5807 0.0000
vt 0.4398 0.5539 0.0000
vt 0.4227 0.4592 0.0000
vt 0.5294 0.4791 0.0000
vt 0.7441 0.8145 0.0000
vt 0.6723 0.7875 0.0000
vt 0.6838 0.7120 0.0000
vt 0.7317 0.7072 0.0000
vt 0.0163 0.5363 0.0000
vt 0.0066 0.4823 0.0000
vt 0.0544 0.4025 0.0000
vt 0.0909 0.4319 0.0000
vt 0.8187 0.1375 0.0000
vt 0.7861 0.0702 0.0000
vt 0.8571 0.0701 0.0000
vt 0.8552 0.1259 0.0000
vt 0.7587 0.1680 0.0000
vt 0.8291 0.1826 0.0000
vt 0.7208 0.2512 0.0000
vt 0.6940 0.2682 0.0000
vt 0.4081 0.3181 0.0000
vt 0.3485 0.2255 0.0000
vt 0.4310 0.1768 0.0000
vt 0.7589 0.4881 0.0000
vt 0.7478 0.3611 0.0000
vt 0.8347 0.4016 0.0000
vt 0.8217 0.4944 0.0000
vt 0.7665 0.6400 0.0000
vt 0.8534 0.6288 0.0000
vt 0.8441 0.7006 0.0000
vt 0.7667 0.7072 0.0000
vt 0.4911 0.1663 0.0000
vt 0.5550 0.0575 0.0000
vt 0.5654 0.2000 0.0000
vt 0.6089 0.0722 0.0000
vt 0.6612 0.0716 0.0000
vt 0.6424 0.1700 0.0000
vt 0.6197 0.3211 0.0000
vt 0.5600 0.3103 0.0000
vt 0.5564 0.2715 0.0000
vt 0.6283 0.2559 0.0000
vt 0.9071 0.1336 0.0000
vt 0.9344 0.1876 0.0000
vt 0.6226 0.5818 0.0000
vt 0.6173 0.6784 0.0000
vt 0.6629 0.5621 0.0000
vt 0.6723 0.6611 0.0000
vt 0.8696 0.4909 0.0000
vt 0.9396 0.5063 0.0000
vt 0.7441 0.8212 0.0000
vt 0.7521 0.7072 0.0000
vt 0.7914 0.7117 0.0000
vt 0.7916 0.8662 0.0000
vt 1.0000 0.6065 0.0000
vt 0.9999 0.7068 0.0000
vt 0.6723 0.5967 0.0000
vt 0.6778 0.4598 0.0000
vt 0.6749 0.6876 0.0000
vt 0.3369 0.7859 0.0000
vt 0.3845 0.7263 0.0000
vt 0.3877 0.8015 0.0000
vt 0.3368 0.8336 0.0000
vt 0.4481 0.3543 0.0000
vt 0.5062 0.3510 0.0000
vt 0.5595 0.3420 0.0000
vt 0.6100 0.3611 0.0000
vt 0.2786 0.7492 0.0000
vt 0.3209 0.6737 0.0000
vt 0.3247 0.7229 0.0000
vt 0.2184 0.7526 0.0000
vt 0.1432 0.7525 0.0000
vt 0.0693 0.7227 0.0000
vt 0.8083 0.3611 0.0000
vt 0.0000 0.2413 0.0000
vt 0.0562 0.1459 0.0000
vt 0.0856 0.0653 0.0000
vt 0.1163 0.0148 0.0000
vt 0.1879 0.0352 0.0000
vt 0.2730 0.0641 0.0000
vt 0.3165 0.0684 0.0000
vt 0.3368 0.1404 0.0000
vt 0.3368 0.6749 0.0000
vt 0.3401 0.6102 0.0000
vt 0.3400 0.5363 0.0000
vt 0.3368 0.4768 0.0000
vt 0.3532 0.4197 0.0000
vt 0.4295 0.4003 0.0000
vt 0.5177 0.4127 0.0000
vt 0.6042 0.4822 0.0000
vt 0.5865 0.4235 0.0000
vt 0.6465 0.4411 0.0000
vt 0.6710 0.4914 0.0000
vt 0.0000 0.6084 0.0000
vt 0.6941 0.1437 0.0000
vt 0.7365 0.0923 0.0000
vt 0.0123 0.6830 0.0000
vt 0.0198 0.7426 0.0000
vt 0.9139 0.0770 0.0000
vt 0.2912 0.4545 0.0000
vt 0.2322 0.4405 0.0000
vt 0.6853 0.3887 0.0000
vt 0.1301 0.4362 0.0000
vt 0.8671 0.4173 0.0000
vt 0.5639 0.0001 0.0000
vt 0.5821 0.0074 0.0000
vt 0.2933 0.0252 0.0000
vt 0.2079 0.0000 0.0000
vt 0.5795 0.3653 0.0000
vt 0.6396 0.3929 0.0000
vt 0.4772 0.3611 0.0000
vt 0.6940 0.1502 0.0000
vt 0.6938 0.2371 0.0000
vt 0.6686 0.3119 0.0000
# 165 texture coords

g default
usemtl Material_001
s off
f 1/1/1 2/1/1 3/1/1 4/1/1 
usemtl Material
s 1
f 5/2/2 4/3/3 6/4/4 7/1/5 
f 8/5/6 9/6/7 10/7/8 11/8/9 
f 12/9/10 13/10/11 14/11/12 15/12/13 
f 11/13/9 16/14/14 17/15/15 8/16/6 
f 18/17/16 19/18/17 20/19/18 21/20/19 
f 22/21/20 23/22/21 1/23/22 24/24/23 
f 25/25/24 26/26/25 27/27/26 28/28/27 
f 29/29/28 30/30/29 31/31/30 32/32/31 
f 33/33/32 34/34/33 35/35/34 36/36/35 
f 37/37/36 38/38/37 39/39/38 40/40/39 
f 41/41/40 42/42/41 43/43/42 44/44/43 
f 45/45/44 46/46/45 47/47/46 21/48/19 
f 48/49/47 49/50/48 50/51/49 51/52/50 
f 52/53/51 53/54/52 54/55/53 55/56/54 
f 56/57/55 57/58/56 58/59/57 59/60/58 
f 60/61/59 61/62/60 62/63/61 63/64/62 
f 64/65/63 65/66/64 66/67/65 67/68/66 
f 68/69/67 69/70/68 39/71/38 38/72/37 
f 24/24/23 70/73/69 71/74/70 72/75/71 
f 73/76/72 74/77/73 75/78/74 76/79/75 
f 77/80/76 78/81/77 10/82/8 45/83/44 
f 79/84/78 72/75/71 19/18/17 80/85/79 
f 81/86/80 82/87/81 83/88/82 84/89/83 
f 85/90/84 86/91/85 87/92/86 88/93/87 
f 7/1/5 6/4/4 28/28/27 27/27/26 
f 7/1/5 27/27/26 29/29/28 35/35/34 
f 7/1/5 35/35/34 34/34/33 5/2/2 
f 8/5/6 38/38/37 37/37/36 9/6/7 
f 46/46/45 9/6/7 37/37/36 42/42/41 
f 46/46/45 45/45/44 10/7/8 9/6/7 
f 13/10/11 12/9/10 50/94/49 49/95/48 
f 59/96/58 13/97/11 49/50/48 52/53/51 
f 59/96/58 58/98/57 14/99/12 13/97/11 
f 17/15/15 16/14/14 62/100/61 61/101/60 
f 68/102/67 17/103/15 61/104/60 64/105/63 
f 68/106/67 38/107/37 8/16/6 17/15/15 
f 71/74/70 20/19/18 19/18/17 72/75/71 
f 77/80/76 20/108/18 71/109/70 73/76/72 
f 77/80/76 45/83/44 21/110/19 20/108/18 
f 72/75/71 79/84/78 22/21/20 24/24/23 
f 81/86/80 87/92/86 22/21/20 79/84/78 
f 23/111/21 22/112/20 87/113/86 86/114/85 
f 25/115/24 1/23/22 23/22/21 26/116/25 
f 86/91/85 30/117/29 26/116/25 23/22/21 
f 29/29/28 27/27/26 26/26/25 30/30/29 
f 86/91/85 85/90/84 31/118/30 30/117/29 
f 89/119/88 31/31/30 85/120/84 3/121/89 
f 32/32/31 31/31/30 89/119/88 90/122/90 
f 35/35/34 29/29/28 32/32/31 36/36/35 
f 32/32/31 90/122/90 91/123/91 36/36/35 
f 2/124/92 33/33/32 36/36/35 91/123/91 
f 40/125/39 39/71/38 15/12/13 14/11/12 
f 14/126/12 58/127/57 43/43/42 40/40/39 
f 42/42/41 37/37/36 40/40/39 43/43/42 
f 43/43/42 58/127/57 57/128/56 44/44/43 
f 92/129/93 93/130/94 44/44/43 57/128/56 
f 93/130/94 94/131/95 41/41/40 44/44/43 
f 41/41/40 47/47/46 46/46/45 42/42/41 
f 41/41/40 94/131/95 95/132/96 47/47/46 
f 18/133/16 21/48/19 47/47/46 95/132/96 
f 48/49/47 51/52/50 2/134/92 91/135/91 
f 91/135/91 90/136/90 53/54/52 48/49/47 
f 53/54/52 52/53/51 49/50/48 48/49/47 
f 53/54/52 90/136/90 89/137/88 54/55/53 
f 89/137/88 3/138/89 96/139/97 54/55/53 
f 54/55/53 96/139/97 97/140/98 55/56/54 
f 55/56/54 56/141/55 59/96/58 52/53/51 
f 98/142/99 56/141/55 55/56/54 97/140/98 
f 56/141/55 98/142/99 92/143/93 57/144/56 
f 63/64/62 4/3/3 5/2/2 60/61/59 
f 60/61/59 5/2/2 34/34/33 65/145/64 
f 61/146/60 60/147/59 65/66/64 64/65/63 
f 65/145/64 34/34/33 33/33/32 66/148/65 
f 2/124/92 51/149/50 66/148/65 33/33/32 
f 51/150/50 50/94/49 67/68/66 66/67/65 
f 67/68/66 69/70/68 68/69/67 64/65/63 
f 50/94/49 12/9/10 69/70/68 67/68/66 
f 69/70/68 12/9/10 15/12/13 39/71/38 
f 25/115/24 70/73/69 24/24/23 1/23/22 
f 70/151/69 25/25/24 28/28/27 74/152/73 
f 73/76/72 71/109/70 70/153/69 74/77/73 
f 74/152/73 28/28/27 6/4/4 75/154/74 
f 63/64/62 75/154/74 6/4/4 4/3/3 
f 76/79/75 75/78/74 63/155/62 62/100/61 
f 78/81/77 77/80/76 73/76/72 76/79/75 
f 62/100/61 16/14/14 78/81/77 76/79/75 
f 16/14/14 11/13/9 10/82/8 78/81/77 
f 19/18/17 18/17/16 95/156/96 80/85/79 
f 94/157/95 82/87/81 80/85/79 95/156/96 
f 82/87/81 81/86/80 79/84/78 80/85/79 
f 82/158/81 94/131/95 93/130/94 83/159/82 
f 92/143/93 98/142/99 83/160/82 93/161/94 
f 98/142/99 97/140/98 84/162/83 83/160/82 
f 84/89/83 88/93/87 87/92/86 81/86/80 
f 88/93/87 84/89/83 97/163/98 96/164/97 
f 85/90/84 88/93/87 96/164/97 3/165/89 
# 97 polygons

